<!-- 기본 앨범 이미지 아이콘 (SVG) -->
<svg xmlns="http://www.w3.org/2000/svg" width="60" height="60" viewBox="0 0 60 60" fill="none">
  <rect width="60" height="60" rx="6" fill="#f0f0f0"/>
  <path d="M30 15C36.627 15 42 20.373 42 27C42 33.627 36.627 39 30 39C23.373 39 18 33.627 18 27C18 20.373 23.373 15 30 15ZM30 21C26.686 21 24 23.686 24 27C24 30.314 26.686 33 30 33C33.314 33 36 30.314 36 27C36 23.686 33.314 21 30 21ZM30 24C31.657 24 33 25.343 33 27C33 28.657 31.657 30 30 30C28.343 30 27 28.657 27 27C27 25.343 28.343 24 30 24Z" fill="#ccc"/>
  <text x="30" y="50" text-anchor="middle" font-family="Arial, sans-serif" font-size="8" fill="#999">NO IMAGE</text>
</svg>